<svg id="Layer_1" data-name="Layer 1" xmlns="http://www.w3.org/2000/svg" viewBox="0 0 1500 1500"><defs><style>.cls-1{font-size:163.98px;fill:#231f20;font-family:Fulgent-Regular, Fulgent;}</style></defs><text class="cls-1" transform="matrix(0.03, -1, 1, 0.03, 339.09, 762.94)">l</text><text class="cls-1" transform="matrix(0.31, -0.95, 0.95, 0.31, 343.37, 680.26)">a</text><text class="cls-1" transform="translate(398.06 545.67) rotate(-55.66)"> </text><text class="cls-1" transform="translate(446.89 477.37) rotate(-39.59)">b</text><text class="cls-1" transform="translate(562.18 392.08) rotate(-19.72)">o</text><text class="cls-1" transform="translate(692.53 352.48) rotate(-0.12)">n</text><text class="cls-1" transform="translate(833.39 359.29) rotate(19.78)">n</text><text class="cls-1" transform="matrix(0.77, 0.64, -0.64, 0.77, 963.36, 414.03)">o</text><text class="cls-1" transform="translate(1063.33 507.83) rotate(56.25)">t</text><text class="cls-1" transform="translate(1115.29 595.46) rotate(70.8)">t</text><text class="cls-1" transform="translate(1145.03 692.15) rotate(87.54)">e</text><text class="cls-1" transform="translate(1141.55 828.01) rotate(103.06)"> </text><text class="cls-1" transform="translate(1120.54 909.34) rotate(118.93)">k</text><text class="cls-1" transform="matrix(-0.75, 0.67, -0.67, -0.75, 1047.56, 1026.36)">o</text><text class="cls-1" transform="translate(938.9 1110.5) rotate(153.92)">l</text><text class="cls-1" transform="translate(861.36 1143.26) rotate(165.93)">l</text><text class="cls-1" transform="translate(780.36 1161.26) rotate(-178.61)">e</text><text class="cls-1" transform="translate(646 1151.34) rotate(-159.35)">k</text><text class="cls-1" transform="matrix(-0.79, -0.61, 0.61, -0.79, 519.85, 1094.09)">t</text><text class="cls-1" transform="translate(442.71 1026.69) rotate(-129.19)">i</text><text class="cls-1" transform="translate(392.36 960.57) rotate(-114.28)">v</text></svg>