<svg id="Layer_1" data-name="Layer 1" xmlns="http://www.w3.org/2000/svg" viewBox="0 0 1500 1500"><defs><style>.cls-1{fill:#231f20;}.cls-2{fill:#fff;}</style></defs><path class="cls-1" d="M1200.5,324.14l11.21-33.44h7.79a2.87,2.87,0,0,0-3,2.95v27.83a2.86,2.86,0,0,0,3,2.94h-10.16a2.86,2.86,0,0,0,3-2.94V292.22L1201.45,325h-.76a3.5,3.5,0,0,0-2.47-1.14,2.2,2.2,0,0,0-1.9,1.14l-14.06-32.58v29.07a2.9,2.9,0,0,0,3.14,2.94H1178a2.94,2.94,0,0,0,3.13-2.94V291.94h-14.81v29.54a3,3,0,0,0,3.23,2.94h-10.45a2.94,2.94,0,0,0,3.13-2.94V295.64a3.82,3.82,0,0,0,3.52-3.7h-13.68a4.62,4.62,0,0,0-4.66,4.94v-5.7h39Z"/><path d="M969.08,810.36c5.74,2,11.21.35,16.37-.69,1,1.52,2.08,3.27,3.5,5.48l-1,1.71a8.25,8.25,0,0,1-1-.11c-1.1-.3-2.19-.62-3.28-.94,0,1-.4,2.2.05,2.88.66,1,2.41,2.52,2.82,2.28,3.19-1.82,5.9.27,8.79.68l-3.24,3.4,7.5-2.5c-1.26,3.33-2.25,5.93-3.24,8.57l2.44-.65,2.47,4c-2.15,2-5.28,3.92-6.92,6.72-1.34,2.28-1.34,5.64-1.13,8.45s-.28,3.75-3,4.32c-2.17.45-4.16,1.76-6.87,2.34,1.16-1.8,2.29-3.63,3.5-5.4.69-1,2.3-2.15,2.1-2.84-.39-1.36-1.66-2.53-2.73-3.62-.43-.43-1.45-.28-1.89-.7a4.08,4.08,0,0,1-1.19-2.21c0-.32,1-1,1.61-1.16,2.84-.58,3.26-1.94,1.81-4.28-5.56,2.66-6.22,4.47-5,10.11.92,4.44,2.47,9-.46,13.5-.83,1.28-.6,3.46-.37,5.17.6,4.5-2.14,6.6-5.48,8.49a4.58,4.58,0,0,0-2.17,2.34c-.18.66.85,1.64,1.33,2.48l.72-.69c-.33,1.42-.66,2.83-1,4.48-3-.59-3.71.48-4.58,3.8-1.12,4.24-.63,10.16-6.93,12,8.56-.19,16.92.71,24.26-5.89,0,1.94.24,3,0,3.12-3.28,2-5.86,5.39-10.18,5.47-3.57.07-4.77,1.74-3.54,4.95,2.13,5.54,0,13.23-4.69,17a132,132,0,0,1-51.28,25c-19.26,4.81-38.74,7.94-58.66,8-15.22.06-30.45.75-45.66.47-18.52-.34-37-1.36-55.39-4.27A121.22,121.22,0,0,1,699.05,926c-4.8-3.85-9.06-8.38-13.59-12.57-7.29-6.73-15.12-11.88-25.23-14.31-10.89-2.62-21.78-5.08-32.83-6.62-9.28-1.29-18.68-1.82-28-2.34-12-.68-24-1.82-35.57-5.16-10.53-3.05-20.51-7.74-28.6-15.43-4.54-4.32-4.4-9.94-2.86-15.58,1.37-5,1.38-5-3-7.6-9-5.48-18.21-10.58-26.72-16.7-5.95-4.26-11.16-9.7-16.14-15.12-2.07-2.26-2.76-5.83-4-8.84-1.31-3.21-3.76-6.59-3.46-9.68.38-3.93-1.42-6.23-3.15-9-.75-1.2-1.35-2.49-1.88-3.49-1.26-.83-3.23-1.46-3.4-2.4a9.8,9.8,0,0,1,1-5.29c.45-1,1.9-1.56,2.83-2.39.56-.5,1.35-1.12,1.4-1.74.17-2.17.06-4.36.06-7l-3.39,2c-.57-1.53-1-2.93-1.59-4.3-1.37-3.42-2.82-6.8-4.14-10.24a22.31,22.31,0,0,1-.73-3.42,32.09,32.09,0,0,1,4.27,1.06c.4.16.46,1.19,1.42,1.84.09-1.66-.12-3.42.37-5a11.76,11.76,0,0,1,2.76-5.08c1.27-1.17,3.24-1.37,3.73,1.39.11.63,1,1.11,1.59,1.66.37-.72,1.07-1.46,1-2.18-.08-3.61-.74-7.24-.43-10.8a12.23,12.23,0,0,1,2.89-6,7.46,7.46,0,0,0,1.73-6.62c-.91-4.81-.19-5.13,4.42-7.17,2.94-1.31,5.3-3.93,8-5.91a5.37,5.37,0,0,1,2.61-1.32c.55,0,1.54,1.14,1.6,1.83a3.22,3.22,0,0,1-1.05,2.57c-2.79,1.71-5.25,3.3-5.47,7.18-.08,1.47-2.06,2.82-3.43,4.55l4.51-.27-4.25,9.87c1.12.26,3.28.18,4.53,1.2s1.56,3.12,2,4.12l8.67-4.75c.39-.22.94-.26,1.19-.56,3.12-3.73,3.11-3.74,5.42.12,3.35-.69,6.73-1.37,10.11-2.1,2.42-.53,4-1.23,1.72-4-.89-1.11-.67-3.11-1-4.71l1-.3,5.47,3.09-1.76,4.11a76.44,76.44,0,0,1,8-1.28c1.48-.09,3,.66,4.52.87a16.13,16.13,0,0,0,2.94-.1l-.06,0c2.75,2.49,5.37,2.54,8.49.3,1.6-1.16,4-1.23,6-1.79-1.47-7.49,3.92-14.82,10-14L568,713l.93-.27c1.05,1.75,2.51,3.39,3,5.28s1.16,2.87,3.35,3.5a31.4,31.4,0,0,1,9.1,4.49c4,2.84,7.91,1.93,12,.06L589.81,725c2.87-2.83,5.33-4.14,8.57-1.34s5.76-.53,8.91-2.06c1.18,2.62,2.29,5.09,3.39,7.56l-1.25.63L606.87,725a16.19,16.19,0,0,0-.61,2.78c0,1.38.16,2.77.26,4.16l-4.3.27c.34,2.24,1.09,4.09,4.1,3.81l-4.38,3.28,6,2.67.74-1.65L606.23,736l2.33-3,7.71,6.63c-2,.26-4.73-.76-5,3a7.15,7.15,0,0,1,7.05,2.75c1.57,2,3.69,1.46,5.33-.68,2.7-3.5,5.27-3.82,9-1.51a9.22,9.22,0,0,0,2.76.63,17.24,17.24,0,0,1,.29-2.5c.23-.85.54-2.25,1-2.35a4.83,4.83,0,0,1,2.9.74c1,.53,2.06,2.13,2.69,1.94A41.17,41.17,0,0,0,650,738.3c.36-.2.07-1.85-.14-2.78s-.82-1.86-1-2.84c-.85-3.69-2.41-4.42-5.76-2.6-.21-.09-.51-.12-.61-.27-.77-1.16-1.49-2.34-2.24-3.51a21.65,21.65,0,0,1,4.11-.54,25.48,25.48,0,0,1,4.32.94l.93-1.2-4-1.12,1.23-2,8,1.46-1.22,4.47c4.9-.89,9.57-3.18,14.18.19.36-1.51.6-2.52,1-4.31,2.27,2.7,6,.88,7.88,4,.22.37,2.11.1,3-.34,2.36-1.16,4-1.7,5.31,1.58A3.63,3.63,0,0,0,690.5,731a119.43,119.43,0,0,0,10.07-8.37,8.14,8.14,0,0,0,1.39-2.13c-1.41-1.71-3.59-3.24-3.41-4.41.23-1.49,2.37-2.69,3.72-4a9.27,9.27,0,0,1,1.1,1.23c.46,1.24.89,2.49,1.33,3.73a20.75,20.75,0,0,0,3.32-2.5c1.58-1.74,2.79-3.82,4.4-5.52a9.09,9.09,0,0,1,4.08-2.78c.7-.15,1.87,1.82,3.4,3.43.4-.58,1.72-1.64,1.58-2.46-1.07-6.67,3-10.61,7.27-14.54,1.74-1.6.77-2.83-.89-3.26-5.16-1.34-5.29-6.32-7.28-9.9-.21-.37,1.21-2.31,2.12-2.53,5.08-1.27,5.14-1.25,2.27-5.26l-6.27-8.76h5.61a15.35,15.35,0,0,1-2.29-3,19.5,19.5,0,0,1-.78-3.78c1.43,0,3.52-.53,4.17.2,2,2.27,4.43,2.43,6.88,1.82a4.24,4.24,0,0,0,2.67-2.7c.79-4.68,2.21-6.17,6.65-6.16.34,0,.77.07,1-.1,4.21-3,7.34.64,10.9,1.72a17.07,17.07,0,0,0,4.23.79c2.17.09,2.85-1,2.66-3.26-.64-7.75-.61-15.57-1.63-23.26-1-7.3,0-14.32,1.44-21.33.69-3.38,2.25-6.57,3.42-9.86.85.12,2.67,1,3.55.39,1.59-1,2.68-2.9,3.85-4.5,1.06-1.45,1.8-3.15,2.94-4.52a70,70,0,0,1,5-5.09c1.55-1.52,2.8-2.25,4.75,0,1.24,1.45,3.71,1.83,6.35,3-.13.49-.5,1.87-1,3.55,1.67,1.69,2.86.81,3.89-1.16a45.05,45.05,0,0,1,2.85-5c1.17-1.68,2.58-2.28,4.7-1,1,.59,2.65.1,4.18.1,1.49,3.35-1.17,6.33-7.77,7.35,1.05,2.23,2.13,4.24,2.94,6.36.55,1.43.68,3,1.11,4.5a11.3,11.3,0,0,0,1.26,3.18c3.19,4.83,2.76,6.93-2.06,9.65a8.91,8.91,0,0,0-1.45,1.56c3.72,2,7.12,3.89,10.66,5.53,1.84.86,3.31.37,4.43-1.8a27.44,27.44,0,0,1,4.71-6.17c.57-.61,2-.4,3.37-.61-.44-.6-.74-1.41-1.17-1.5-2-.38-3.18-1.05-3.6-3.37-.39-2.09-4.29-2.71-6.15-1.45a10.86,10.86,0,0,1-2.85,1c.41-.8.85-1.59,1.23-2.4.52-1.1,1-2.21,1.3-2.85l8.88,2.48c.05-.16-.11.41-.29,1,1.92.63,3.82,1.37,5.78,1.84a2.71,2.71,0,0,0,2.31-.53c2.25-2.91,3.7-1.23,5.44.5-1.35,1.05-3.39,2-3.33,2.71a47.19,47.19,0,0,0,1.83,8.26,1.3,1.3,0,0,0,1.11.6c5.4-1.27,11-2.57,14.42-7.3a4.68,4.68,0,0,0-1.26-6.75c-2.9-1.79-2.23-4-1.27-6.11,1.21-2.69,3.1-.45,4.71-.26a9,9,0,0,0,1.49-.33c-2.5-3.41-4.82-6.6-7.16-9.8.78-.52,1-.77,1.14-.74,5,1.23,6.14.36,6.29-4.87.06-2.12,2.83-3.11,5-1.63a42.54,42.54,0,0,1,3.55,3.2,25.16,25.16,0,0,1,2.7,2,10.78,10.78,0,0,1,2.35,3.64c.63,1.89.66,4,1.19,5.89.15.54,1.27,1.3,1.73,1.17A5.08,5.08,0,0,0,869.9,592a16.27,16.27,0,0,0,1.58-3.63l2.94,3.25,4.15-1.71c-1-.51-1.94-.76-2-1.13a15.12,15.12,0,0,1,.22-3.2,10.38,10.38,0,0,1,3.14,1.06A9.82,9.82,0,0,1,882.9,590a4.4,4.4,0,0,1-.18,3.33c-.23.5-1.62.47-3,.8l1.81,4.51c-1.89,1.24-3.59,2.37-5.29,3.5l-.42-.38c.43-.85,1.22-1.71,1.21-2.56a20.8,20.8,0,0,0-.92-4.17c-.8.22-2.08.22-2.32.71a12,12,0,0,0-1.15,4.47c0,.68,1,1.41,1.66,2.26-1,.88-1.84,1.65-2.69,2.43l0,.88c2.81-.84,4.36,2.93,7.89,1,1.77-1,3.91,1.09,4.74,3.45,1.73,4.9,2,4.88,6.7,2.6a11,11,0,0,1,5-1c2.87.09,4.41-1.2,5.4-3.74,1.8-4.59,3.79-5.83,8.64-6,.6,0,1.19-.68,1.79-1-.42-.6-.8-1.7-1.26-1.73-3.75-.25-3.35-3.17-3.51-5.51-.06-.83.88-2.39,1.47-2.44,1-.09,2.73.48,3,1.23,1.34,3.19,2.5,3.22,4.32.39a7.27,7.27,0,0,1,2.13-1.78c1.37,2.46,2.31,4.88,3.88,6.78,1.44,1.73,3.06,1.34,3.58-1.14s1-5.22,1.63-7.8a2.05,2.05,0,0,1,1.26-1.35,1.9,1.9,0,0,1,1.66.79c1.29,3.78,6.45,5.13,6.21,9.93,0,.36,1.9,1.3,2.69,1.1,2.3-.58,3.43,0,4.56,2.18.84,1.66,2.9,2.69,5,4.5l-1.51,2.39c2.21,2.24,4.52,4.56,6.76,7,.3.31,0,1.12.26,1.55,1.18,2.08,2.06,4.54,3.77,6.06,3.06,2.72,3.43,6.49,4.82,9.86a18,18,0,0,1,.82,3.77,49.06,49.06,0,0,0-3.24,6c-.2.52,1.19,2.38,1.55,2.3,3.66-.83,4.91,1.6,6.23,4.65,4-1.57,6.64,0,8.45,3.7.4.81,1.77,1.15,2.69,1.71.39-1.09.79-2.19,1.27-3.51l2.42.29a3.17,3.17,0,0,0,.29-1c-.22-3.06-.68-6.12-.69-9.18a6.07,6.07,0,0,1,4.59-6.34c.82,4.65,2.17,8.73.83,13.52-.9,3.24.34,7.11.81,10.66.05.4,1.41,1,2.08.87,2.78-.35,3.91.54,2.82,2.84a8.42,8.42,0,0,0,.84,9.31c.7,1,1.17,3.22.61,3.81-3,3.2-.72,7.45-2.44,10.29,1,1.41,2.33,2.44,2.49,3.62.1.68-1.64,1.62-2.11,2-3.57-3-6.58-5.55-9.62-8.07a1.74,1.74,0,0,0-1-.23c-2.91,0-7.44,7.59-6.13,10.24a9,9,0,0,1,.48,2.11c-.79,0-1.59,0-2.38-.09-1.05-.07-2.09-.2-4-.39,3,2.77,5.19,4.64,7.18,6.72a51.1,51.1,0,0,1,4.43,5.51c.3.42.23,1.69,0,1.79a3.55,3.55,0,0,1-2.45.29A45.58,45.58,0,0,1,972,706.6c-6.49-4.34-13.9-6.5-21.26-8.28a296,296,0,0,0-30.34-5.44c-14.51-2-29.07-3.76-43.68-4.83a211.36,211.36,0,0,0-29.13.14,356.11,356.11,0,0,0-57.75,8.14A177.86,177.86,0,0,0,754.31,709c-15.86,7.48-31.57,15.22-46.16,25-11.25,7.53-21.85,15.79-29.52,27.24-1.45,2.16-3.58,3.85-5.19,5.91-1.21,1.56-2.1,3.26.06,5,.5.41.41,2,.08,2.82a17.22,17.22,0,0,1-2.28,3.24L674,779,670,782.83c1.2,1.08,3.95,1.06,1,4.16l1.71-.28c5.08-4.75,10.15-9.51,15.12-14.17a19.88,19.88,0,0,0,.87,4.76,3.87,3.87,0,0,0,2.72,2.1c.89.06,2-1,2.77-1.87a7.54,7.54,0,0,0,1.37-2.71,8.84,8.84,0,0,1,13.86-4.06c.7.55.79,1.87,1.31,3.21,1.85-1.94,3.36-3.68,5.05-5.25,1.85-1.73,3.85-3.29,5.76-4.91l2.07,4.25h-3.25l-.32.74,2.76,1.61a18.88,18.88,0,0,0-2.83,2.75c-.16.23,1,1.4,1,1.31l6-2.89,1,4,3.34-4.27,2.83,1.24c.23-1,.46-2.08.72-3.28,2.13-.51,4.67,3.35,3.74,6.44a26.58,26.58,0,0,1-2.2,5.66c-1.39,2.37.29,3,1.75,3.93,1.87,1.12,3,.42,3.64-1.82h-4c1.78-3.18,2.38-3.25,5.86-1.57l2.66-2.55-3.73,1c-.4-1.24-1.73-3.23-1.21-4.16,1.1-1.91,2.24-3.7,5.71-3.63,3.67.08,6.84,3,10.66,1.43.8-.32,2.19.41,3.14,1,3,1.73,3.5,1.56,4-1.93.09-.68.15-1.36.19-1.78,1.25-.24,2.73-.08,3.42-.74a3,3,0,0,1,4.76.24c1.21,1.57,5.43.41,3.44,4.75l2.79-1.75c-.82-2.13-1.66-4.12-2.29-6.18-.1-.34.71-1,1.58-2.07,0,4.24,1.94,6.33,4.64,7.51a35.42,35.42,0,0,1,2.43-5.36c.51-.78,1.83-1,2.78-1.51a9.62,9.62,0,0,1-.35,3.13c-1.3,2.7-2.83,5.29-4.29,8l3.95,1.83-1.84,2.54,1.66.7-2.5,2.38L791,785.8l3-1.85-4.78-2.22c1-2,2-4,3.27-6.49l2.81,2.62.59-.33c-.59-1.29-1.17-2.57-1.75-3.86.19-.27.39-.53.59-.8,1.24.83,3,1.39,3.62,2.55,1.42,2.5.65,4.81-1.87,6.88.91-.09,1.82-.13,2.71-.28,1.91-.3,3.39-.19,4.7,1.76.83,1.24,2.73,1.88,4.26,2.5,1.79.73,3.71,1.15,5.88,1.79l3.69-4.08c1.91-.1,2.88,1.16,3.3,3.42.35,1.91.16,2.64-2.05,2.78-1.59.1-3.11,1.23-5,2l2.58,1.8-.4.76-7-3.63v2.53l-4.37-.58c1.12,1.78,2.59,3.09,2.69,4.49.23,3.42,2.76,4,5.08,4.69,2,.56,4.15.37,6.22.63.39.05.68.72,1.06,1,1.92,1.62,4.15.94,5.61-1,1.31-1.77,3.27-3.05,5.23-4.81,1.23,7.42,7,3.92,10.59,6-.12.49-.33,1.3-.64,2.53,2-.32,4.1-.09,5.44-1,2-1.35,3.89-.61,5.82-.58A1.58,1.58,0,0,1,853,806c.09.3-.38.93-.76,1.19a29.23,29.23,0,0,1-2.88,1.53c1.75.55,3.66.65,4.68,1.66.58.56-.31,2.62-.71,5,1.13,1,3.15,2.85,5.29,4.56.28.23,1.17-.31,1.61-.44-.48-2.25-.92-4.29-1.48-6.9l3.46.92a35,35,0,0,1,2.47-3.83,11.67,11.67,0,0,1,2.22,1.16c1.33-2.56,2.81-5.44,4.3-8.31h.13a13.52,13.52,0,0,1,1.94-3.13c.29-.28,2,.23,2.36.82,2.13,3.31-1.32,3.87-2.09,5.44-.49,5.18-1,10.37-1.45,15.47l7.1,1.5c-.68-2.06-1.12-3.4-1.88-5.73l8.58,1.27c.29-.62.67-2.12,1-2.12a6.21,6.21,0,0,1,3.05,1,58.85,58.85,0,0,0,6.68,4.06c2.62,2.93-2,3.7-2.31,5.83l3.74,1.53a15.07,15.07,0,0,0-1.72,2.93,18.62,18.62,0,0,0-.45,3.68c1.45-.44,3.68-.47,4.19-1.42,1.46-2.7,3.44-2.43,5.7-1.94,2.85.61,5.69,1.73,8.53,1.73,2.24,0,4.47-1.36,7.33-2.33-1.16-1.41-2-2.41-2.79-3.39-2.55-3-2.55-5.16-.21-8.17a11.18,11.18,0,0,0,1.1-3.08c1.93,1.35,3.84,2.84,5.92,4.06a5.7,5.7,0,0,0,3.25.66c5-.56,5-.62,5.92,4.43H939c.23-3.62,2.26-4.78,5.61-4.91,1.33,0,2.59-1.56,3.75-2.32l4.11,5.25,1.29-.4c-2.91-5.41-.23-9.63,2.1-14.68l3.12,4.89.88-.41-1.5-3.65.39-.52c.66.6,1.78,1.13,1.89,1.82.46,3,2.25,2.92,4.5,2.42a19.76,19.76,0,0,1,3.38-.18c.19-.79.44-1.77.69-2.76Zm2.56-137.46.6,1.35a24.17,24.17,0,0,1-2.53,2.23c-2.84,1.89-4.15,5.94-2.52,8.69.52.86,1.67,1.34,2.53,2a10.66,10.66,0,0,0,1.24-2.75c.47-3.32-.08-7,4.27-8.47.5-.17,1-2.4.62-2.77-4.71-4.65-3.13-10.32-2.9-15.8A3.43,3.43,0,0,0,972,655c-.34-.34-1.45-.16-2.09.09-1.9.76-3.73,1.67-6.12,2.76a5,5,0,0,1-.74,2.46c-2.77,3.11-1.08,5.69.66,8.34a15,15,0,0,1,1.56,2.24C966.51,673.83,967.89,676.11,971.64,672.9ZM686.26,791.5l-2.56-1.8c3.31-1.33,1.89-3.16.87-5.22-2.47,1-5.19,1.45-6.88,3s-4.21,3.76-1.19,6.64c2.44-.43,5.07-3.26,7.12.66ZM489,741.3l5.86-4.66c-1.62-2.86-7.58-4.4-10.51-2.44a2.23,2.23,0,0,0-.16,2.16C485.71,738.13,487.43,739.7,489,741.3ZM924.61,606.73c-2.22,2.78-.43,4.88.43,7,.34.82,1.42,1.33,2.17,2,.62-.85,1.69-1.66,1.77-2.55C929.26,610,927.14,608.31,924.61,606.73Zm59,68.17c-.53,3.4-1.56,6.41,1.49,7.46,2.11.73,3.21-1.6,3.55-3.68C989.4,673.89,985.19,677,983.57,674.9Zm-36.93-44.4,1.35-.6c-.79-1.55-1.31-3.41-2.52-4.51-.5-.46-3.49.5-3.63,1.17C941,630.74,945,629.09,946.64,630.5Zm-293.36,106c-.37,2.23-1,4.58-.74,4.69a43.44,43.44,0,0,0,6.33,1.72l.62-1.37Zm275.18-128.7c3.1-1.73,4.08-3.29,2.76-5.36-.43-.68-1.81-.78-2.76-1.14Zm52.66,55.69,1-2.09-4.07-2.19c-.38.84-.77,1.69-1.15,2.54Zm-2.74,178.66-.51-.71-5.59,2.83,3,3.18C976.49,845.31,977.43,843.71,978.38,842.11ZM777.44,788.36l1.51,3.72,5-3.19C781.81,785.19,780.06,789.11,777.44,788.36Zm196.79,77.75,2,.7a39.14,39.14,0,0,0,1.36-4.44c0-.27-1.1-.77-1.7-1.16C975.34,862.84,974.78,864.47,974.23,866.11ZM748.58,786.42c-.12.6-.24,1.2-.37,1.8l5,1.22a9.41,9.41,0,0,0,.12-2.12C751.75,786.9,750.16,786.69,748.58,786.42ZM943.45,825.3a10.94,10.94,0,0,1-1.63,2.78c-1.85,1.61-1,2.54.63,3.62C944.11,829.62,945.53,827.71,943.45,825.3ZM935,620.42c-.33,2.55-.55,4.2-.76,5.86l1,.13C936.59,624.87,938.41,623.42,935,620.42ZM537.23,734.06c1.13-2.18,1.86-3.57,3-5.76-1.54.72-3.3,1-3.6,1.83C536.23,731.21,537,732.72,537.23,734.06ZM934.52,615.28c-.82,1.24-1.53,1.88-1.6,2.58,0,.49.77,1.07,1.2,1.61.56-.6,1.35-1.12,1.6-1.83C935.87,617.22,935.18,616.5,934.52,615.28Z"/><path d="M896.11,756.56l1.94,3.78c-1.72,2.65-3.11.54-5.2-1.39-.34,2-.57,3.44-.86,5.18l-2.76-5.54c-.43,1.52-.76,2.73-1.11,4-4.67-2-8.62-4.3-10.8-9.23-2.44-5.48-.84-10.87,5.07-13.41l6.16,17.16,1.68-.57c-1.72-5.59-3.44-11.18-5.21-17l3.76-2.86,1.94,2.76a28.46,28.46,0,0,0,4.69-.79,27.19,27.19,0,0,0,6.61-3c1.12-.77,1.48-2.59-.67-3.44-.46-.18-.68-1-1.56-2.26l6.91,2c-3.67,2.36-3.05,3.9-.66,6.26,1.3,1.28,1.76,4.47,1.2,6.4-1.25,4.28-1.6,4.17,2.55,6.15.7.33,1.38.71,2.28,1.18l-1.86,1.15a3.28,3.28,0,0,0,.4.55c.89.7,2.56,1.38,2.55,2.06,0,2.14-3.5,4.61-5.5,4-1.83-.55-3.45-1.73-5.26-2.35-.95-.33-2.1-.06-3.78-.06l-1.55-1.39Z"/><path d="M838.84,558.7l-4-1c.17-.44.19-.77.32-.82,2.57-1.06,11.69,1.67,13.3,3.84,1.21,1.63,1.54,3.09.41,5s-2.45,2.53-4.73,2.37a80.93,80.93,0,0,0-9.61.36l.83,3.31-.7.75c-1.06-.88-3.06-1.81-3-2.65.14-3.37-2.16-3.76-4.54-4.31-.27-3.87,3.11-3.52,5.09-4.36s4.41-1,6.64-1.37C838.84,559.45,838.84,559.08,838.84,558.7Z"/><path d="M997.81,878.86c1.23-3,2.49-6,3.68-9.07,2.25-5.73,4.37-11.51,6.76-17.19a7.17,7.17,0,0,1,3-2.89,2.64,2.64,0,0,1,2.4.65c1.3,1.38.14,8.09-1.53,9.09s-2.39,2.08-1.77,4.21c.25.88-.85,2.26-1.53,3.29-2.27,3.41-4.56,6.82-7,10.1a14.2,14.2,0,0,1-3.15,2.41Z"/><path d="M1013.53,834.22c-2.42.1-1.64,4.16-4.51,2.43-1.87-1.13-2.88-5.31-1.82-7.59s8.83-6.42,11.76-6v-5.33c1.65-.77,2.15-.21,1.88,2.15a47.64,47.64,0,0,1-6.63,20.3,41.58,41.58,0,0,0-1.91,3.91l-1-.22C1012,840.71,1012.76,837.55,1013.53,834.22Z"/><path d="M958.73,786.37c-1.12-4.17.29-6.28,3.51-5.25.86.28,1.68.7,2.54,1s1.5.48,1.41.45a66.65,66.65,0,0,1,7.82-4c.87-.31,2.28.86,3.94,1.57l-8.12,6.22.68,1.84c-2.07,1.92-11.74,2.78-16.15,1.11l4.46-3.07a11.81,11.81,0,0,0,.94,2.62,2.66,2.66,0,0,0,1.93-.63c.32-.51,0-1.44-.08-2.19Z"/><path d="M706.13,706.69c-1.61.2-3.56.95-4,.41a13.21,13.21,0,0,1-3-5.65c-.21-1-.52-3.61,2.25-3.75,2.37-.12,3.55.72,4.09,3.06.19.83,1.52,1.34,2.1,2.16a32.64,32.64,0,0,1,2.76,4.57c.13.25-.64,1.31-1.12,1.42a2.64,2.64,0,0,1-2.13-.45A4.57,4.57,0,0,1,706.13,706.69Z"/><path d="M848.73,802.7c1.72-3.66,2.85-6.09,4.39-9.38l-6-.45c.39-1.38.87-3.12,1.5-5.36,3,2.15,5.45,3.72,7.67,5.51a2.69,2.69,0,0,1,.71,2.41A22.58,22.58,0,0,1,853.7,802C853,802.84,850.75,802.46,848.73,802.7Z"/><path d="M904.64,812.72c2.06,1.09,4.68.9,4.64,4.23,0,.79,1.63,1.61,1.94,1.9-2.14,3.8-4.19,7.41-6.24,11l-1-.4c.48-1.62,1.06-3.23,1.4-4.88.16-.75.14-2-.31-2.32-2.64-1.88-2.67-3.94-1-6.48C904.51,815.13,904.41,814.1,904.64,812.72Z"/><path d="M676.37,642.08c1.09.38,2.7.43,3.19,1.2,2.49,3.88,6.62,4.93,10.39,6.74,1,.48,1.36,2.3,2,3.5-1.19-.18-2.57,0-3.56-.59a111.79,111.79,0,0,1-10.08-6.22c-1.2-.84-1.85-2.48-2.76-3.75Z"/><path d="M616.92,720.7a45.17,45.17,0,0,1-5.71-.06,9.51,9.51,0,0,1-2.76-1.34c.62-.77,1.09-1.81,1.9-2.26a11.16,11.16,0,0,1,4-1.43C617.32,715.24,618.18,717.72,616.92,720.7Z"/><path d="M626.26,725.82c-3-1.58-8.32-.33-6.92-6.38l4.55-1.62C624.71,720.6,625.49,723.21,626.26,725.82Z"/><path d="M829.37,783.05c.38-.3,1.65-2,2.5-1.81a4.54,4.54,0,0,1,2.88,3c.17,1.05-1.13,3.23-2,3.39C830.58,788,828.94,786.85,829.37,783.05Z"/><path d="M820,594.84l-3.13-3.62,3.58-3.09c.84,1.18,2.1,2.27,2.35,3.56C822.93,592.38,821.33,593.41,820,594.84Z"/><path d="M859.12,775.3l-4.06,3.83c-.14-1-.25-1.78-.36-2.6l-3.53,1.29v-5.17Z"/><path d="M634.26,642.2l-3.57-3.56a24.88,24.88,0,0,1,4.7-1.78c.61-.11,1.46,1.08,2.2,1.67Z"/><path d="M969.17,810.26c-.89.11-1.93.56-2.66.26a30.16,30.16,0,0,1-4.07-2.43,23.17,23.17,0,0,1,3.82-2.25c1.77-.65,2.84.08,2.69,2.16a17.06,17.06,0,0,0,.13,2.36Z"/><path d="M812.29,566.44c-.28-1.25-.86-2.56-.58-2.77a29.53,29.53,0,0,1,5.2-3.2c.28-.13,1.18,1,1.8,1.62Z"/><path d="M709.7,761.9l6.19-1.28c.1,2,.2,4,.3,5.89l-1.09.38Z"/><path d="M818.94,569.51a51.33,51.33,0,0,1,5.78-2.42c.71-.2,1.69.54,2.39.8L821,572.47Z"/><path d="M484.16,711.76c.55-2.61,1.43-5.11,4.26-6.22.61-.24,1.56.38,2.36.61-.28.69-.37,1.65-.88,2C488.16,709.41,486.28,710.46,484.16,711.76Z"/><path d="M869.38,746.54c-1.42,1.26-2.69,2.85-4.35,3.59-.5.23-2-1.86-3.12-2.89l.76-.83,2.19,1.17,3.35-2.59Z"/><path d="M972.92,628.36c-.43-3.33-.73-5.72-1.12-8.72C975.71,621.84,976.05,624.48,972.92,628.36Z"/><path d="M648.34,717.31l.93-4.93,3.14,1.48-2,4.1Z"/><path d="M545.15,726.15l-.84-6.37,2.92-.7a14.69,14.69,0,0,1,0,4c-.33,1.14-1.35,2.08-2.09,3.12Z"/><path d="M961.81,624.9c-1.26-1.75-2.27-2.69-2.61-3.83-.14-.47,1.12-1.37,1.75-2.07a11.4,11.4,0,0,1,2.39,2.7C963.57,622.22,962.64,623.25,961.81,624.9Z"/><path d="M556.6,721.84l-6,1.4-.65-1.19c1.37-1,2.63-2.24,4.15-2.76.74-.25,2,.91,3,1.43Z"/><path d="M900.92,786.55l-2,2.23-3.13-3.1c.68-.59,1.63-1.81,2-1.65A15,15,0,0,1,900.92,786.55Z"/><path d="M948.08,800.34l-2.89,3.58c-.56-1.1-1.45-2.15-1.58-3.3-.08-.77.9-1.65,1.4-2.49Z"/><path d="M952.7,798.14v-6h3.36c-.85,2.21-1.68,4.32-2.5,6.44Z"/><path d="M670.86,701.26l4.46-.46.13,3.06-4.63-.76Z"/><path d="M881.86,813.4c-1.29-4-1-4.52,2.67-5.12C886.19,811.17,883.63,811.86,881.86,813.4Z"/><path d="M841.61,800.55c-1,.42-2.07,1.27-3,1.11s-1.65-1.37-1.82-2.24c-.1-.51,1-1.69,1.74-1.79s1.43.85,2.15,1.34C841,799.5,841.31,800,841.61,800.55Z"/><path d="M510,695.16l-5.52,5.25-1-1.19c2.05-1.5,2.69-4.69,5.79-4.94Z"/><path d="M724.41,647.78l2.26,3.87a17.93,17.93,0,0,1-2.13.92c-.72-1.25-1.28-2.59-1.88-3.92Z"/><path d="M994.11,711.71a33.52,33.52,0,0,1-3.41,3.53c-.5.4-1.56.1-2.36.11.3-.68.42-1.6.94-2a44.72,44.72,0,0,1,4.19-2.47Z"/><path d="M920.65,579.39c-.88-1.37-1.77-2.72-2.57-4.13a8,8,0,0,1,1.38-.93c1.06,1.27,2,2.61,3,3.95Z"/><path d="M888.57,574.19c-1.08-1.13-2.19-2.22-3.17-3.42-.08-.1.69-.89,1.06-1.36l3.58,3.27Z"/><path d="M807.66,780.61l4.09,1-1.11,2.59L807,782.3Z"/><path d="M808.6,579.71l3.92-.57c-.12,1-.24,2.05-.37,3.08l-3.63-1.14Z"/><path d="M890,767.42l4.17,6.92L893,775c-1.38-2.31-2.77-4.62-4.15-6.94Z"/><path d="M613.21,705.79v4.4l-5.16-1.74Z"/><path d="M685.91,692.56c-1.09.66-1.9,1.44-2.18,1.28a18.16,18.16,0,0,1-2.64-2.19c.49-.48,1.2-1.45,1.42-1.35A25.6,25.6,0,0,1,685.91,692.56Z"/><path d="M989.37,782.66l1.27,1.64,1.32-2.66c.19,1.33.58,2.18.31,2.52a25.62,25.62,0,0,1-3.28,2.9l-.33-4.23Z"/><path d="M801.24,771.62l-6-1.32.4-1.41,6,1.69Z"/><path d="M992.47,859.06l-.21-3.49.84-.57,3.14,2.5-3,.17c-.07.31-.2.84-.32,1.38Z"/><path d="M821,574.37c.58,1.85.94,3,1.39,4.42C819,578,818.86,577.67,821,574.37Z"/><path class="cls-2" d="M971.64,672.9c-3.75,3.21-5.13.93-6.33-2a15,15,0,0,0-1.56-2.24c-1.74-2.65-3.43-5.23-.66-8.34a5,5,0,0,0,.74-2.46c2.39-1.09,4.22-2,6.12-2.76.64-.25,1.75-.43,2.09-.09a3.43,3.43,0,0,1,.91,2.37c-.23,5.48-1.81,11.15,2.9,15.8.38.37-.12,2.6-.62,2.77-4.35,1.45-3.8,5.15-4.27,8.47a10.66,10.66,0,0,1-1.24,2.75c-.86-.65-2-1.13-2.53-2-1.63-2.75-.32-6.8,2.52-8.69a24.17,24.17,0,0,0,2.53-2.23Z"/><path class="cls-2" d="M686.26,791.5l-2.64,3.29c-2-3.92-4.68-1.09-7.12-.66-3-2.88-.41-5.17,1.19-6.64s4.41-2,6.88-3c1,2.06,2.44,3.89-.87,5.22Z"/><path class="cls-2" d="M489,741.3c-1.59-1.6-3.31-3.17-4.81-4.94a2.23,2.23,0,0,1,.16-2.16c2.93-2,8.89-.42,10.51,2.44Z"/><path class="cls-2" d="M924.61,606.73c2.53,1.58,4.65,3.26,4.37,6.39-.08.89-1.15,1.7-1.77,2.55-.75-.65-1.83-1.16-2.17-2C924.18,611.61,922.39,609.51,924.61,606.73Z"/><path class="cls-2" d="M983.57,674.9c1.62,2.12,5.83-1,5,3.78-.34,2.08-1.44,4.41-3.55,3.68C982,681.31,983,678.3,983.57,674.9Z"/><path class="cls-2" d="M946.64,630.5c-1.6-1.41-5.67.24-4.8-3.94.14-.67,3.13-1.63,3.63-1.17,1.21,1.1,1.73,3,2.52,4.51Z"/><path class="cls-2" d="M653.28,736.46l6.21,5-.62,1.37a43.44,43.44,0,0,1-6.33-1.72C652.27,741,652.91,738.69,653.28,736.46Z"/><path class="cls-2" d="M928.46,607.76v-6.5c.95.36,2.33.46,2.76,1.14C932.54,604.47,931.56,606,928.46,607.76Z"/><path class="cls-2" d="M606.23,736l2.44,4.24-.74,1.65-6-2.67,4.38-3.28Z"/><path class="cls-2" d="M981.12,663.45l-4.2-1.74c.38-.85.77-1.7,1.15-2.54l4.07,2.19Z"/><path class="cls-2" d="M978.38,842.11c-1,1.6-1.89,3.2-3.15,5.3l-3-3.18,5.59-2.83Z"/><path class="cls-2" d="M777.44,788.36c2.62.75,4.37-3.17,6.51.53l-5,3.19Z"/><path class="cls-2" d="M974.23,866.11c.55-1.64,1.11-3.27,1.66-4.9.6.39,1.75.89,1.7,1.16a39.14,39.14,0,0,1-1.36,4.44Z"/><path class="cls-2" d="M748.58,786.42c1.58.27,3.17.48,4.71.9a9.41,9.41,0,0,1-.12,2.12l-5-1.22C748.34,787.62,748.46,787,748.58,786.42Z"/><path class="cls-2" d="M943.45,825.3c2.08,2.41.66,4.32-1,6.4-1.61-1.08-2.48-2-.63-3.62A10.94,10.94,0,0,0,943.45,825.3Z"/><path class="cls-2" d="M935,620.42c3.39,3,1.57,4.45.26,6l-1-.13C934.47,624.62,934.69,623,935,620.42Z"/><path class="cls-2" d="M537.23,734.06c-.26-1.34-1-2.85-.59-3.93.3-.83,2.06-1.11,3.6-1.83C539.09,730.49,538.36,731.88,537.23,734.06Z"/><path class="cls-2" d="M934.52,615.28c.66,1.22,1.35,1.94,1.2,2.36-.25.71-1,1.23-1.6,1.83-.43-.54-1.25-1.12-1.2-1.61C933,617.16,933.7,616.52,934.52,615.28Z"/><path class="cls-2" d="M958.73,786.37l2.88-.3c.06.75.4,1.68.08,2.19a2.66,2.66,0,0,1-1.93.63,11.81,11.81,0,0,1-.94-2.62Z"/></svg>